# xmcd
#
# Track frame offsets:
#	150
#	12648
#	27490
#	46059
#	61975
#	76812
#	92243
#	121651
#	137219
#	152845
#	167590
#	181085
#	194075
#	209244
#	223591
#	237750
#	256945
#	277168
#	290190
#	302351
#	313902
#
# Disc length: 4379 seconds
#
# Revision: 0
# Processed by: cddbd v1.5.2PL0 Copyright (c) Steve Scherf et al.
# Submitted via: EasyCDDAExtractor 16.0.8.1
#
DISCID=3a111915
DTITLE=Nagyvárosok nagyszerű zenéje - Nápoly CD-2
DYEAR=1900
DGENRE=
TTITLE0=Napoli Fortuna mia
TTITLE1=O Marenariello
TTITLE2=Serenata Napoletana
TTITLE3=Tutte Le Mamme
TTITLE4=Luna Rossa
TTITLE5=Balocchi e Profumi
TTITLE6=Lacreme  Napolitane
TTITLE7=Santa Lucia luntana
TTITLE8=Maria Mari
TTITLE9=Stornello a Pingolo
TTITLE10=La tarantella
TTITLE11=O pease d' o sole
TTITLE12=Munasterio 'E Santa Clara
TTITLE13=Luna Caprese
TTITLE14=Guaglione
TTITLE15=Santa Lucia
TTITLE16=Felicitá
TTITLE17=Tiritomba
TTITLE18=O Surdato
TTITLE19=Funiculi, Funichulá
TTITLE20=Addio a Napoli
EXTD=
EXTT0=
EXTT1=
EXTT2=
EXTT3=
EXTT4=
EXTT5=
EXTT6=
EXTT7=
EXTT8=
EXTT9=
EXTT10=
EXTT11=
EXTT12=
EXTT13=
EXTT14=
EXTT15=
EXTT16=
EXTT17=
EXTT18=
EXTT19=
EXTT20=
PLAYORDER=
